<svg id="icons" xmlns="http://www.w3.org/2000/svg" version="1.1">
  <symbol id="logo" viewBox="0 0 26 24">
    <path d="M23.8421 6.79683C23.0149 6.07761 21.6484 4.92685 20.4257 3.84801C19.9223 3.38051 19.4548 3.12878 18.9513 3.12878C17.9804 3.12878 16.9375 3.95589 16.1104 4.71108C17.4769 5.8978 20.2459 8.27125 21.6125 9.45797C22.5115 10.2132 22.5834 10.7885 22.5834 11.4358V17.5133C22.5834 18.9517 21.3967 20.1385 19.9582 20.1385H10.3206C8.88217 20.1385 7.69545 18.9517 7.69545 17.5133V12.8743C7.19199 13.2699 6.54469 13.5216 5.82546 13.5216C5.25008 13.5216 4.71066 13.3418 4.24316 13.0901V17.4773C4.24316 20.8217 6.97622 23.5548 10.3206 23.5548H19.9223C23.2667 23.5548 25.9997 20.8217 25.9997 17.4773V11.3999C25.9997 10.1053 25.748 8.41509 23.8421 6.79683Z" fill="#FFFFFF"/>
    <path d="M13.4495 4.53112C13.5214 4.4592 13.6293 4.35131 13.7732 4.20747C14.5643 3.38036 15.8949 1.97787 17.4772 1.43845C17.3333 1.29461 17.2254 1.15076 17.0816 1.00692L16.9737 0.934993C16.3624 0.395574 15.6072 0 14.5643 0C13.1259 0 12.4066 0.683264 11.5436 1.5823L5.71784 7.51591C5.60996 7.40802 5.46611 7.30014 5.35823 7.19225C5.28631 7.12033 5.21438 7.04841 5.14246 7.01245C5.1065 6.97649 5.07054 6.94053 5.03458 6.90456C3.59613 5.71784 1.7621 5.60996 0 7.30014C1.33057 8.23513 3.12863 9.78147 4.56708 11.184C4.89073 11.5076 5.32227 11.6874 5.78976 11.6874C6.25726 11.6874 6.6888 11.5076 7.01245 11.184L13.4495 4.53112Z" fill="#F7981C"/>
  </symbol>

  <symbol id="hamburger-menu" viewBox="0 0 25 16">
    <rect width="25" height="2" fill="white"/>
    <rect y="7" width="25" height="2" fill="white"/>
    <rect y="14" width="25" height="2" fill="white"/>
  </symbol>

  <symbol id="arrow-down" viewBox="0 0 12 7" fill="none">
    <path d="M11 1L6.06494 6.06495L1 1" stroke="currentColor" stroke-miterlimit="10" />
  </symbol>

  <symbol id="arrow-left" viewBox="0 0 13 22" fill="none">
    <path d="M12 21L2 10.8701L12 1" stroke="currentColor" stroke-width="2" stroke-miterlimit="10" stroke-linecap="round"/>
  </symbol>

  <symbol id="arrow-right" viewBox="0 0 13 22" fill="none">
    <path d="M1 21L11 10.8701L1 1" stroke="currentColor" stroke-width="2" stroke-miterlimit="10" stroke-linecap="round"/>
  </symbol>

  <symbol id="user" viewBox="0 0 11 12">
    <path d="M3.43922 5.19515C3.58556 5.26832 3.73191 5.34149 3.87825 5.41466C3.95142 5.41466 3.95142 5.48784 4.02459 5.48784C4.09776 5.56101 4.2441 5.56101 4.39045 5.63418C4.46362 5.63418 4.46362 5.63418 4.53679 5.63418C4.68313 5.63418 4.90265 5.70735 5.04899 5.70735C5.19533 5.70735 5.41484 5.70735 5.56119 5.63418C5.63436 5.63418 5.63436 5.63418 5.70753 5.63418C5.85387 5.63418 5.92704 5.56101 6.07338 5.56101C6.14656 5.56101 6.14655 5.56101 6.21973 5.48784C6.36607 5.34149 6.51241 5.26832 6.58558 5.19515C7.31729 4.68295 7.82949 3.8049 7.82949 2.85367C7.90266 1.24391 6.58558 0 5.04899 0C3.51239 0 2.19531 1.24391 2.19531 2.85367C2.19531 3.8049 2.70751 4.68295 3.43922 5.19515Z" fill="currentColor"/>
    <path d="M7.39029 5.56079C6.73175 6.07299 5.92686 6.43885 5.04881 6.43885C4.17076 6.43885 3.36587 6.07299 2.70733 5.56079C1.09757 6.36567 0 8.04861 0 9.95106C0 10.6828 0.146342 11.4145 0.439027 11.9999H9.58542C9.87811 11.3413 10.0244 10.6828 10.0244 9.95106C10.0244 8.04861 9.00005 6.36567 7.39029 5.56079Z" fill="currentColor"/>
  </symbol>

  <symbol id="info" viewBox="0 0 24 24" >
    <path d="M0 0h24v24H0V0z" fill="none"/>
    <path d="M11 7h2v2h-2zm0 4h2v6h-2zm1-9C6.48 2 2 6.48 2 12s4.48 10 10 10 10-4.48 10-10S17.52 2 12 2zm0 18c-4.41 0-8-3.59-8-8s3.59-8 8-8 8 3.59 8 8-3.59 8-8 8z"/>
  </symbol>

  <symbol id="calendar" viewBox="0 0 14 15" fill="none">
    <path d="M6.90039 3.69971V14.1997" stroke="currentColor" stroke-miterlimit="10"/>
    <path d="M9.90039 3.69971V14.1997" stroke="currentColor" stroke-miterlimit="10"/>
    <path d="M3.90039 3.69971V14.1997" stroke="currentColor" stroke-miterlimit="10"/>
    <path d="M12.8 3.69971H1V14.3997H12.8V3.69971Z" stroke="currentColor" stroke-miterlimit="10"/>
    <path d="M1.09961 8.19971H12.6996" stroke="currentColor" stroke-miterlimit="10"/>
    <path d="M1.09961 11.2998H12.6996" stroke="currentColor" stroke-miterlimit="10"/>
    <path d="M4.90039 1.2998H2.90039V3.59981H4.90039V1.2998Z" stroke="currentColor" stroke-miterlimit="10"/>
    <path d="M10.9004 1.2998H8.90039V3.59981H10.9004V1.2998Z" stroke="currentColor" stroke-miterlimit="10"/>
    <path d="M12.7002 3.7998H1.2002V5.7998H12.7002V3.7998Z" fill="currentColor"/>
  </symbol>

  <symbol id="dashboard" viewBox="0 0 17 17" fill="none">
    <path d="M0 16.7376V8.31188H4.21287V16.6238H0V16.7376ZM6.26238 16.7376V0H10.4752V16.7376H6.26238ZM12.5248 5.23762H16.7376V16.7376H12.5248V5.23762Z" fill="currentColor"/>
  </symbol>

  <symbol id="reservations" viewBox="0 0 19 21" fill="none">
    <path class="fill" d="M16.8724 18.8852V7.37705H2.1276V18.8852H16.8724ZM16.8724 2.11475C17.4332 2.11475 17.928 2.32787 18.3568 2.7541C18.7856 3.18033 19 3.67213 19 4.22951V18.8852C19 19.4426 18.7856 19.9344 18.3568 20.3607C17.928 20.7869 17.4332 21 16.8724 21H2.1276C1.53385 21 1.02257 20.7869 0.59375 20.3607C0.197917 19.9344 0 19.4426 0 18.8852V4.22951C0 3.67213 0.197917 3.18033 0.59375 2.7541C1.02257 2.32787 1.53385 2.11475 2.1276 2.11475H3.16667V0H5.29427V2.11475H13.7057V0H15.8333V2.11475H16.8724Z" fill="currentColor"/>
    <path class="stroke" d="M7 13.5L9 15L12.5 11" stroke="currentColor" stroke-width="1.5" stroke-linecap="round" stroke-linejoin="round"/>
  </symbol>

  <symbol id="rateplans" viewBox="0 0 22 24"  fill="none">
    <path d="M6.76367 15.2515C6.76367 15.4207 6.84831 15.5054 7.01758 15.5054H19.5605V17.689H6.56055C5.98503 17.689 5.47721 17.4689 5.03711 17.0288C4.63086 16.5887 4.42773 16.0809 4.42773 15.5054C4.42773 15.1668 4.51237 14.8283 4.68164 14.4897L6.1543 11.7983L2.24414 3.57178H0.0605469V1.43896H3.61523C4.29232 2.86084 4.9694 4.29964 5.64648 5.75537C5.81576 6.06006 6.20508 6.87256 6.81445 8.19287C7.42383 9.47933 7.89779 10.478 8.23633 11.189H15.8535C18.3926 6.5848 19.7806 4.04574 20.0176 3.57178L21.8965 4.63818L17.7324 12.2046C17.3262 12.9494 16.6999 13.3218 15.8535 13.3218H7.7793L6.81445 15.0991L6.76367 15.2515ZM15.9043 19.4155C16.3444 18.9754 16.8522 18.7554 17.4277 18.7554C18.0033 18.7554 18.4941 18.9754 18.9004 19.4155C19.3405 19.8556 19.5605 20.3634 19.5605 20.939C19.5605 21.5145 19.3405 22.0223 18.9004 22.4624C18.4941 22.8687 18.0033 23.0718 17.4277 23.0718C16.8522 23.0718 16.3444 22.8687 15.9043 22.4624C15.4642 22.0223 15.2441 21.5145 15.2441 20.939C15.2441 20.3634 15.4642 19.8556 15.9043 19.4155ZM5.03711 19.4155C5.47721 18.9754 5.98503 18.7554 6.56055 18.7554C7.13607 18.7554 7.64388 18.9754 8.08398 19.4155C8.52409 19.8556 8.74414 20.3634 8.74414 20.939C8.74414 21.5145 8.52409 22.0223 8.08398 22.4624C7.64388 22.8687 7.13607 23.0718 6.56055 23.0718C5.98503 23.0718 5.47721 22.8687 5.03711 22.4624C4.63086 22.0223 4.42773 21.5145 4.42773 20.939C4.42773 20.3634 4.63086 19.8556 5.03711 19.4155ZM10.9277 9.00537V5.75537H7.67773V3.57178H10.9277V0.321777H13.0605V3.57178H16.3105V5.75537H13.0605V9.00537H10.9277Z" fill="currentColor"/>
  </symbol>

  <symbol id="color-customization" viewBox="0 0 19 19" fill="none">
    <path d="M9.45049 0C12.0693 0 14.2327 0.79703 16.0545 2.39109C17.8762 3.98515 18.7871 6.03465 18.7871 8.31188C18.7871 9.79208 18.2178 10.9307 17.1931 11.9554C16.1683 12.9802 14.9158 13.4356 13.5495 13.4356H11.7277C11.2723 13.4356 10.9307 13.5495 10.5891 13.8911C10.2475 14.2327 10.1337 14.5743 10.1337 15.0297C10.1337 15.3713 10.2475 15.7129 10.4752 16.0545C10.703 16.396 10.8168 16.7376 10.8168 17.0792C10.8168 17.5347 10.703 17.8762 10.3614 18.2178C10.0198 18.5594 9.67822 18.6733 9.22277 18.6733C6.60396 18.6733 4.44059 17.7624 2.61881 15.9406C0.910891 14.2327 0 11.9554 0 9.45049C0 6.83168 0.910891 4.55446 2.73267 2.73267C4.55446 0.910891 6.83168 0 9.45049 0ZM2.61881 8.99505C2.9604 9.33663 3.30198 9.45049 3.75743 9.45049C4.21287 9.45049 4.55446 9.33663 4.89604 8.99505C5.23762 8.65347 5.35148 8.31188 5.35148 7.85644C5.35148 7.40099 5.23762 7.05941 4.89604 6.71782C4.55446 6.37624 4.21287 6.26238 3.75743 6.26238C3.30198 6.26238 2.9604 6.37624 2.61881 6.71782C2.27723 6.94554 2.0495 7.40099 2.0495 7.85644C2.0495 8.31188 2.27723 8.65347 2.61881 8.99505ZM5.69307 4.78218C6.03465 5.12376 6.37624 5.23762 6.83168 5.23762C7.28713 5.23762 7.62871 5.12376 7.9703 4.78218C8.31188 4.44059 8.42574 4.09901 8.42574 3.64356C8.42574 3.18812 8.31188 2.84653 7.9703 2.50495C7.62871 2.27723 7.17327 2.0495 6.83168 2.0495C6.37624 2.0495 6.03465 2.27723 5.69307 2.61881C5.35148 2.9604 5.23762 3.30198 5.23762 3.75743C5.23762 4.09901 5.35148 4.44059 5.69307 4.78218ZM10.9307 4.78218C11.2723 5.12376 11.6139 5.23762 12.0693 5.23762C12.5248 5.23762 12.8663 5.12376 13.2079 4.78218C13.5495 4.44059 13.6634 4.09901 13.6634 3.64356C13.6634 3.18812 13.5495 2.84653 13.2079 2.50495C12.8663 2.16337 12.5248 2.0495 12.0693 2.0495C11.6139 2.0495 11.2723 2.16337 10.9307 2.50495C10.5891 2.84653 10.4752 3.18812 10.4752 3.64356C10.4752 4.09901 10.5891 4.44059 10.9307 4.78218ZM14.005 8.99505C14.3465 9.33663 14.6881 9.45049 15.1436 9.45049C15.599 9.45049 15.9406 9.33663 16.2822 8.99505C16.6238 8.65347 16.7376 8.31188 16.7376 7.85644C16.7376 7.40099 16.6238 7.05941 16.2822 6.71782C15.9406 6.37624 15.599 6.26238 15.1436 6.26238C14.6881 6.26238 14.3465 6.37624 14.005 6.71782C13.6634 7.05941 13.5495 7.40099 13.5495 7.85644C13.5495 8.31188 13.6634 8.65347 14.005 8.99505Z" fill="currentColor"/>
  </symbol>

  <symbol id="email-customization" viewBox="0 0 20 19" fill="none">
    <path d="M19.8686 6.94857V16.9371C19.8686 17.48 19.6514 17.9143 19.3257 18.3486C18.8914 18.7829 18.4571 19 17.9143 19H1.95429C1.41143 19 0.977143 18.7829 0.542857 18.3486C0.217143 17.9143 0 17.48 0 16.9371V6.94857C0 6.18857 0.325714 5.64571 0.977143 5.21143L9.98857 0L19 5.32C19.5429 5.64571 19.8686 6.18857 19.8686 6.94857ZM9.98857 11.9429L18.24 6.84L9.98857 1.95429L1.73714 6.84L9.98857 11.9429Z" fill="currentColor"/>
  </symbol>

  <symbol id="text-customization" viewBox="0 0 12 15" fill="none">
    <path d="M8.1444 15H3.86643V3.31395H0V0H12V3.31395H8.1444V15Z" fill="currentColor"/>
  </symbol>

  <symbol id="translation-tool" viewBox="0 0 20 16" fill="none">
    <path d="M19.75 4.75L15.4336 9.06641V5.81641H7.81641V3.68359H15.4336V0.433594L19.75 4.75ZM4.56641 6.93359V10.1836H12.1836V12.3164H4.56641V15.5664L0.25 11.25L4.56641 6.93359Z" fill="currentColor"/>
  </symbol>

  <symbol id="user-group" viewBox="0 0 23 15" fill="none">
    <path d="M4.32673 8.65346C5.35148 8.42574 6.37624 8.31188 7.28713 8.31188C8.19802 8.31188 9.22277 8.42574 10.2475 8.65346C11.2723 8.88119 12.297 9.33663 13.2079 9.90594C14.1188 10.4752 14.5743 11.1584 14.5743 11.9554V14.5743H0V11.9554C0 11.1584 0.455446 10.5891 1.36634 9.90594C2.27723 9.45049 3.30198 8.99505 4.32673 8.65346ZM9.56436 5.35148C8.88119 5.92079 8.19802 6.26238 7.28713 6.26238C6.4901 6.26238 5.69307 5.92079 5.12376 5.35148C4.55446 4.66832 4.21287 3.98515 4.21287 3.18812C4.21287 2.27723 4.55446 1.59406 5.12376 0.910891C5.80693 0.341584 6.4901 0 7.28713 0C8.08416 0 8.88119 0.341584 9.45049 0.910891C10.1337 1.59406 10.4752 2.27723 10.4752 3.18812C10.4752 3.98515 10.1337 4.66832 9.56436 5.35148ZM17.8762 5.35148C17.3069 5.92079 16.5099 6.26238 15.7129 6.26238C14.9158 6.26238 14.1188 5.92079 13.5495 5.35148C12.8663 4.66832 12.5248 3.98515 12.5248 3.18812C12.5248 2.39109 12.8663 1.59406 13.4356 1.02475C14.1188 0.341584 14.802 0 15.7129 0C16.5099 0 17.3069 0.341584 17.8762 0.910891C18.4455 1.4802 18.7871 2.27723 18.7871 3.07426C18.7871 3.98515 18.4455 4.66832 17.8762 5.35148ZM15.7129 8.31188C16.6238 8.31188 17.6485 8.42574 18.6733 8.65346C19.698 8.88119 20.7228 9.33663 21.6337 9.90594C22.5446 10.4752 23 11.1584 23 11.9554V14.5743H16.7376V11.9554C16.7376 10.4752 16.0545 9.33663 14.6881 8.31188C14.9158 8.31188 15.2574 8.31188 15.7129 8.31188Z" fill="currentColor"/>
  </symbol>

  <symbol id="dot" viewBox="0 0 5 5" fill="none">
    <circle cx="2.5" cy="2.5" r="2.5" fill="currentColor"/>
  </symbol>

  <symbol id="blank-circle" viewBox="0 0 22 22" fill="none">
    <circle cx="11" cy="11" r="11" fill="currentColor"/>
  </symbol>

  <symbol id="quick-update" viewBox="0 0 27 21" fill="none">
    <path fill-rule="evenodd" clip-rule="evenodd" d="M14.4745 7.37705H2.36784V18.8852H15.6471C16.4527 19.5937 17.3934 20.1521 18.4256 20.5167C18.0378 20.8389 17.6002 21 17.1126 21H2.36784C1.77409 21 1.2628 20.7869 0.833984 20.3607C0.438151 19.9344 0.240234 19.4426 0.240234 18.8852V4.22951C0.240234 3.67213 0.438151 3.18033 0.833984 2.7541C1.2628 2.32787 1.77409 2.11475 2.36784 2.11475H3.4069V0H5.53451V2.11475H13.946V0H16.0736V2.11475H17.1126C17.6734 2.11475 18.1682 2.32787 18.597 2.7541C19.0258 3.18033 19.2402 3.67213 19.2402 4.22951V4.24089C17.3095 4.7109 15.6369 5.8403 14.4745 7.37705Z" fill="currentColor"/>
    <path d="M21.2578 16.5851V14.5426L23.9917 17.2553L21.2578 20V17.9574C19.7568 17.9574 18.4596 17.4255 17.366 16.3617C16.2939 15.2766 15.7578 13.9894 15.7578 12.5C15.7578 11.4362 16.0473 10.4681 16.6262 9.59574L17.6233 10.5851C17.3017 11.1596 17.1409 11.7979 17.1409 12.5C17.1409 13.6277 17.5375 14.5957 18.3309 15.4043C19.1457 16.1915 20.1214 16.5851 21.2578 16.5851ZM21.2578 7.04255C22.7588 7.04255 24.0453 7.58511 25.1175 8.67021C26.211 9.73404 26.7578 11.0106 26.7578 12.5C26.7578 13.5638 26.4683 14.5319 25.8894 15.4043L24.8923 14.4149C25.214 13.8404 25.3748 13.2021 25.3748 12.5C25.3748 11.3723 24.9674 10.4149 24.1525 9.62766C23.3592 8.81915 22.3943 8.41489 21.2578 8.41489V10.4574L18.5239 7.74468L21.2578 5V7.04255Z" fill="currentColor"/>
  </symbol>

  <symbol id="pencil" viewBox="0 0 13 12" fill="none">
    <path d="M12.4722 2.6875L11.2534 3.90625L8.75342 1.40625L9.97217 0.1875C10.0972 0.0625 10.2534 0 10.4409 0C10.6284 0 10.7847 0.0625 10.9097 0.1875L12.4722 1.75C12.5972 1.875 12.6597 2.03125 12.6597 2.21875C12.6597 2.40625 12.5972 2.5625 12.4722 2.6875ZM0.659668 9.5L8.03467 2.125L10.5347 4.625L3.15967 12H0.659668V9.5Z" fill="currentColor"/>
  </symbol>

  <symbol id="bubble-square-left" viewBox="0 0 26 25" fill="none">
    <path d="M24.186 1.27162L24.2063 1.29366L24.2284 1.31401C24.5902 1.64805 24.75 2.01845 24.75 2.46479V17.4883C24.75 17.9373 24.5874 18.3379 24.2068 18.7185L24.1962 18.7291L24.186 18.7401C23.852 19.102 23.4816 19.2617 23.0352 19.2617H5.48826H5.1776L4.95793 19.4814L1.25 23.1893V2.46479C1.25 1.99821 1.406 1.6218 1.73456 1.29324C2.11516 0.912638 2.5158 0.75 2.96479 0.75H23.0352C23.4816 0.75 23.852 0.909752 24.186 1.27162Z" fill="none" stroke="currentColor" stroke-width="2"/>
  </symbol>

  <symbol id="map-tag" viewBox="0 0 14 19" fill="none">
    <path d="M5.3949 8.22339C5.85323 8.65308 6.3975 8.86792 7.02771 8.86792C7.65792 8.86792 8.18787 8.65308 8.61755 8.22339C9.07589 7.76506 9.30505 7.22078 9.30505 6.59058C9.30505 5.96037 9.07589 5.43042 8.61755 5.00073C8.18787 4.5424 7.65792 4.31323 7.02771 4.31323C6.3975 4.31323 5.85323 4.5424 5.3949 5.00073C4.96521 5.43042 4.75037 5.96037 4.75037 6.59058C4.75037 7.22078 4.96521 7.76506 5.3949 8.22339ZM2.47302 2.07886C3.73344 0.818441 5.25167 0.188232 7.02771 0.188232C8.80375 0.188232 10.3077 0.818441 11.5394 2.07886C12.7998 3.31063 13.4301 4.81453 13.4301 6.59058C13.4301 7.4786 13.2009 8.49552 12.7426 9.64136C12.3129 10.7872 11.7829 11.8614 11.1527 12.864C10.5225 13.8666 9.89229 14.8119 9.26208 15.7C8.66052 16.5593 8.1449 17.2468 7.71521 17.7625L7.02771 18.4929C6.85583 18.2924 6.62667 18.0346 6.34021 17.7195C6.05375 17.3757 5.53813 16.7169 4.79333 15.7429C4.04854 14.7403 3.38969 13.7807 2.81677 12.864C2.2725 11.9187 1.7712 10.8588 1.31287 9.68433C0.854533 8.50985 0.625366 7.4786 0.625366 6.59058C0.625366 4.81453 1.24125 3.31063 2.47302 2.07886Z" fill="currentColor"/>
  </symbol>

  <symbol id="times" viewBox="0 0 28 28" fill="none">
    <path stroke="currentColor" stroke-width="2" d="M1 1L27 27ZM1 27L27 1"/>
  </symbol>

  <symbol id="download" viewBox="0 0 11 14" fill="none">
    <path d="M0.470215 11.51H10.9468V13.0217H0.470215V11.51ZM10.9468 4.76001L5.7085 9.99829L0.470215 4.76001H3.4585V0.26001H7.9585V4.76001H10.9468Z" fill="currentColor"/>
  </symbol>

  <symbol id="dots-h" viewBox="0 0 20 5" fill="none">
    <circle cx="2.5" cy="2.5" r="2.5" fill="currentColor"/>
    <circle cx="10" cy="2.5" r="2.5" fill="currentColor"/>
    <circle cx="17.5" cy="2.5" r="2.5" fill="currentColor"/>
  </symbol>

  <symbol id="checkbox-tick" viewBox="0 0 18 18" fill="none">
    <path d="M2 8L6.5 11.5L14 4" stroke="currentColor" stroke-width="2" />
  </symbol>

  <symbol id="ok-tick" viewBox="0 0 18 18" fill="none">
    <path d="M3 9L7 13L15 4" stroke="currentColor" stroke-width="1.5" />
  </symbol>

  <symbol id="fail-tick" viewBox="0 0 18 18" fill="none">
    <path d="M4 4L13 13M4 13L13 4" stroke="currentColor" stroke-width="1.5" />
  </symbol>

  <symbol id="edit" viewBox="0 0 17 17" fill="none">
    <path d="M16.4551 3.94531L14.7793 5.62109L11.3418 2.18359L13.0176 0.507812C13.1895 0.335938 13.4043 0.25 13.6621 0.25C13.9199 0.25 14.1348 0.335938 14.3066 0.507812L16.4551 2.65625C16.627 2.82812 16.7129 3.04297 16.7129 3.30078C16.7129 3.55859 16.627 3.77344 16.4551 3.94531ZM0.212891 13.3125L10.3535 3.17188L13.791 6.60938L3.65039 16.75H0.212891V13.3125Z" fill="currentColor"/>
  </symbol>

  <symbol id="delete" viewBox="0 0 16 20" fill="none">
    <path d="M11.413 1.80004H15.063V3.91941H0.462891V1.80004H4.11292L5.1726 0.740356H10.3533L11.413 1.80004Z" fill="currentColor"/>
    <path d="M12.3548 7.45157V17.1065C12.3548 17.2242 12.3548 17.2242 12.2371 17.342C12.1193 17.4597 12.0016 17.4597 12.0016 17.4597H3.64183C3.52409 17.4597 3.52409 17.4597 3.40634 17.342C3.17086 17.2242 3.17086 17.2242 3.17086 17.1065V7.45157H12.3548ZM14.0032 5.68542H1.52246V17.1065C1.52246 17.6952 1.75795 18.1662 2.11117 18.6371C2.58215 19.1081 3.05312 19.2258 3.64183 19.2258H12.0016C12.5903 19.2258 13.0612 18.9904 13.5322 18.6371C14.0032 18.1662 14.1209 17.6952 14.1209 17.1065V5.68542H14.0032Z" fill="currentColor"/>
    <path d="M6.82112 9.45337H5.4082V15.9292H6.82112V9.45337Z" fill="currentColor"/>
    <path d="M10.2352 9.45337H8.82227V15.9292H10.2352V9.45337Z" fill="currentColor"/>
  </symbol>

  <symbol id="copy" viewBox="0 0 16 19" fill="none">
    <path d="M14.2832 17V5.32031H5.14258V17H14.2832ZM14.2832 3.67969C14.7259 3.67969 15.1165 3.84896 15.4551 4.1875C15.7936 4.5 15.9629 4.8776 15.9629 5.32031V17C15.9629 17.4427 15.7936 17.8333 15.4551 18.1719C15.1165 18.5104 14.7259 18.6797 14.2832 18.6797H5.14258C4.69987 18.6797 4.30924 18.5104 3.9707 18.1719C3.63216 17.8333 3.46289 17.4427 3.46289 17V5.32031C3.46289 4.8776 3.63216 4.5 3.9707 4.1875C4.30924 3.84896 4.69987 3.67969 5.14258 3.67969H14.2832ZM11.7832 0.320312V2H1.7832V13.6797H0.142578V2C0.142578 1.55729 0.298828 1.16667 0.611328 0.828125C0.94987 0.489583 1.34049 0.320312 1.7832 0.320312H11.7832Z" fill="currentColor"/>
  </symbol>

  <symbol id="plus" viewBox="0 0 11 12" fill="none">
    <path d="M6.72266 0.42627H4.72266V11.1071H6.72266V0.42627Z" fill="currentColor"/>
    <path d="M10.7227 4.69849H0.722656V6.83466H10.7227V4.69849Z" fill="currentColor"/>
  </symbol>

  <symbol id="history" viewBox="0 0 14 14" fill="none">
    <path d="M7.50391 3.47852V6.97852L10.5039 8.75977L10.0039 9.60352L6.50391 7.47852V3.47852H7.50391ZM3.37891 10.6035C4.44141 11.6452 5.70182 12.166 7.16016 12.166C8.61849 12.166 9.86849 11.6452 10.9102 10.6035C11.9727 9.54102 12.5039 8.2806 12.5039 6.82227C12.5039 5.36393 11.9727 4.11393 10.9102 3.07227C9.86849 2.00977 8.61849 1.47852 7.16016 1.47852C5.70182 1.47852 4.44141 2.00977 3.37891 3.07227C2.33724 4.11393 1.81641 5.36393 1.81641 6.82227C1.81641 8.2806 2.33724 9.54102 3.37891 10.6035ZM2.44141 2.13477C3.75391 0.822266 5.32682 0.166016 7.16016 0.166016C8.99349 0.166016 10.556 0.822266 11.8477 2.13477C13.1602 3.42643 13.8164 4.98893 13.8164 6.82227C13.8164 8.6556 13.1602 10.2285 11.8477 11.541C10.556 12.8327 8.99349 13.4785 7.16016 13.4785C5.32682 13.4785 3.75391 12.8327 2.44141 11.541C1.14974 10.2285 0.503906 8.6556 0.503906 6.82227C0.503906 4.98893 1.14974 3.42643 2.44141 2.13477Z" fill="currentColor"/>
  </symbol>

  <symbol id="link" viewBox="0 0 24 24" fill="none">
    <path fill="currentColor" d="M3.9 12c0-1.71 1.39-3.1 3.1-3.1h4V7H7c-2.76 0-5 2.24-5 5s2.24 5 5 5h4v-1.9H7c-1.71 0-3.1-1.39-3.1-3.1zM8 13h8v-2H8v2zm9-6h-4v1.9h4c1.71 0 3.1 1.39 3.1 3.1s-1.39 3.1-3.1 3.1h-4V17h4c2.76 0 5-2.24 5-5s-2.24-5-5-5z"/>
  </symbol>
</svg>
